<svg xmlns="http://www.w3.org/2000/svg" enable-background="new 0 0 24 24" viewBox="0 0 24 24" class="sc-gKsewC hxdUPG"><title data-testid="svgTitle" id="title_0.26659825330162645">whatsapp</title><g><path d="M18.8,14.634a1.361,1.361,0,0,0-.645-.477l-.165-.081c-.018-.009-1.845-.917-2.208-1.049a.983.983,0,0,0-1.3.349c-.177.266-.721.914-.918,1.2a.409.409,0,0,1-.125-.049c-.058-.028-.137-.063-.233-.105a7.636,7.636,0,0,1-2.2-1.387,12.737,12.737,0,0,1-1.683-2.008.766.766,0,0,1,.086-.093c.1-.1.223-.248.342-.392l.159-.191a2.247,2.247,0,0,0,.338-.538l.044-.09a1.064,1.064,0,0,0-.026-1c-.057-.116-.35-.835-.616-1.481L9.31,6.408a1.123,1.123,0,0,0-1.146-.849c-.192-.01-.412-.012-.63-.012a1.724,1.724,0,0,0-1.269.62A3.989,3.989,0,0,0,5.087,9.074a6.653,6.653,0,0,0,1.435,3.631,14.178,14.178,0,0,0,5.546,4.857,18.659,18.659,0,0,0,1.846.682,4.476,4.476,0,0,0,1.373.208,5.741,5.741,0,0,0,.84-.065,3.729,3.729,0,0,0,2.526-1.826,2.85,2.85,0,0,0,.142-1.927Zm-1.084,1.59A2.852,2.852,0,0,1,15.978,17.4a3.837,3.837,0,0,1-1.762-.107,17.989,17.989,0,0,1-1.752-.647,13.168,13.168,0,0,1-5.122-4.512l-.071-.1A5.548,5.548,0,0,1,6.087,9.074a3.06,3.06,0,0,1,.974-2.295.654.654,0,0,1,.473-.232c.2,0,.4,0,.579.011h0l.133-.01a.685.685,0,0,1,.139.244l.341.827c.279.68.592,1.438.647,1.548.04.079.033.091.026.1l-.048.1a1.323,1.323,0,0,1-.2.327L8.98,9.9c-.1.117-.19.234-.275.318a.957.957,0,0,0-.217,1.249,9.938,9.938,0,0,0,1.854,2.307,8.645,8.645,0,0,0,2.464,1.558c.076.034.138.06.184.083a.969.969,0,0,0,1.282-.2,9.857,9.857,0,0,0,.993-1.306,1,1,0,0,1,.17.051c.229.084,1.6.75,2.1,1l.177.087c.067.032.144.069.2.1A3.126,3.126,0,0,1,17.711,16.224Z"/><path d="M12,1A11,11,0,0,0,2.792,18.014l-.974,3.711a.5.5,0,0,0,.61.61l3.779-.991A11,11,0,1,0,12,1Zm0,21a9.961,9.961,0,0,1-5.437-1.614.493.493,0,0,0-.4-.064L3,21.151l.814-3.1a.5.5,0,0,0-.071-.41A10,10,0,1,1,12,22Z"/></g></svg>